<svg xmlns="http://www.w3.org/2000/svg" xmlns:xlink="http://www.w3.org/1999/xlink" viewBox="0 0 621.92 384.41">
  <defs>
    <style>
      .cls-1 {
        fill: #8ba683;
      }

      .cls-1,
      .cls-10,
      .cls-11,
      .cls-12,
      .cls-3,
      .cls-5,
      .cls-6,
      .cls-9 {
        stroke: #8dcb67;
      }

      .cls-1,
      .cls-10,
      .cls-11,
      .cls-12,
      .cls-13,
      .cls-14,
      .cls-3,
      .cls-4,
      .cls-5,
      .cls-6,
      .cls-9 {
        stroke-miterlimit: 10;
      }

      .cls-1,
      .cls-10,
      .cls-11,
      .cls-12 {
        stroke-width: 3px;
      }

      .cls-2 {
        fill: #a28688;
      }

      .cls-3,
      .cls-5,
      .cls-6 {
        stroke-width: 7px;
      }

      .cls-3 {
        fill: url(#radial-gradient);
      }

      .cls-4 {
        fill: #a67c52;
      }

      .cls-14,
      .cls-4 {
        stroke: #8d5e35;
        stroke-width: 8px;
      }

      .cls-5 {
        fill: url(#radial-gradient-2);
      }

      .cls-6 {
        fill: url(#radial-gradient-3);
      }

      .cls-7 {
        fill: url(#radial-gradient-4);
      }

      .cls-8 {
        fill: url(#New_Gradient_Swatch);
      }

      .cls-10,
      .cls-9 {
        fill: none;
      }

      .cls-11 {
        fill: url(#radial-gradient-5);
      }

      .cls-12 {
        fill: url(#radial-gradient-6);
      }

      .cls-13 {
        stroke: #000;
      }

      .cls-14 {
        fill: #c69c6d;
      }
    </style>
    <radialGradient id="radial-gradient" cx="471.11" cy="276.51" r="22.84"
      gradientTransform="translate(-56.55 158.63) rotate(-18.1)" gradientUnits="userSpaceOnUse">
      <stop offset="0.41" stop-color="#8ba683" />
      <stop offset="0.46" stop-color="#8ba683" />
    </radialGradient>
    <radialGradient id="radial-gradient-2" cx="151.37" cy="286.77" r="22.84"
      gradientTransform="translate(73.96 -33.89) rotate(15.22)" xlink:href="#radial-gradient" />
    <radialGradient id="radial-gradient-3" cx="312.32" cy="172.91" fx="187.73745262682377" fy="92.55085833823645"
      r="148.25" gradientTransform="matrix(1, 0, 0, 1, 0, 0)" xlink:href="#radial-gradient" />
    <radialGradient id="radial-gradient-4" cx="449.97" cy="181.72" fx="442.6755824030804" fy="160.49144901421795"
      r="69.91" gradientTransform="matrix(-0.64, -0.56, -0.47, 0.61, 770.08, 317.49)" gradientUnits="userSpaceOnUse">
      <stop offset="0.28" stop-color="#a28688" stop-opacity="0.6" />
      <stop offset="0.33" stop-color="#9b9086" stop-opacity="0.72" />
      <stop offset="0.39" stop-color="#959885" stop-opacity="0.83" />
      <stop offset="0.46" stop-color="#919e84" stop-opacity="0.9" />
      <stop offset="0.54" stop-color="#8da384" stop-opacity="0.96" />
      <stop offset="0.66" stop-color="#8ca583" stop-opacity="0.99" />
      <stop offset="1" stop-color="#8ba683" />
    </radialGradient>
    <radialGradient id="New_Gradient_Swatch" cx="224.12" cy="181.72" fx="216.8184391533057" fy="160.4914493648409"
      r="69.91" gradientTransform="matrix(0.64, -0.56, 0.47, 0.61, -1.84, 190.83)" xlink:href="#radial-gradient-4" />
    <radialGradient id="radial-gradient-5" cx="359.84" cy="136.11" r="11.71" gradientUnits="userSpaceOnUse">
      <stop offset="0" stop-color="#fff" />
      <stop offset="1" />
    </radialGradient>
    <radialGradient id="radial-gradient-6" cx="346.6" cy="135.16" r="11.71"
      gradientTransform="matrix(-1, 0, 0, 1, 611.89, 0)" xlink:href="#radial-gradient-5" />
  </defs>
  <g id="Layer_2" data-name="Layer 2">
    <g id="Layer_1-2" data-name="Layer 1">
      <g id="legs">
        <path id="left" class="cls-1"
          d="M269.82,357.41c0,20.16-15.84,25.5-36,25.5s-37-5.34-37-25.5a36.5,36.5,0,0,1,73,0Z" />
        <path id="right" class="cls-1"
          d="M437.09,357.06c0,20.16-15.84,25.5-36,25.5s-37-5.34-37-25.5a36.5,36.5,0,0,1,73,0Z" />
      </g>
      <g id="ears">
        <g id="left-2" data-name="left">
          <path id='left-ear-base' class="cls-1"
            d="M52.59,1.78c47.68.21,54-1.2,72.85,2.33,16.74,3.14,29,7.51,41.66,12,25.65,9.12,38.48,13.67,48.44,23.27a56.15,56.15,0,0,1,17.15,44.9c-1.42,14.45-10.41,36.35-32,41.41-22.83,5.35-48.32-10.85-83.93-33.49C94.52,78,96.33,76,61.8,51.05,19.52,20.53-.73,11,1.69,4.44,3.16.49,11.49,1.6,52.59,1.78Z" />
          <path id='left-ear-into' class="cls-2"
            d="M106.37,32.85c32.12,1.95,36.34,1.42,49.15,4.09A221.73,221.73,0,0,1,184,45.15c17.63,6,26.44,9,33.52,14.68,13.72,11,13.37,23.59,13.27,25.39-.4,7.89-5.61,19.61-19.93,21.57-15.16,2.07-33-7.84-57.81-21.68-15.53-8.65-14.4-9.71-38.61-24.77-29.64-18.44-43.65-24.49-42.26-28C73,30.24,78.69,31.17,106.37,32.85Z" />
        </g>
        <g id="right-2" data-name="right">
          <path class="cls-1"
            d="M569.33,6.82c-47.68.21-54-1.2-72.85,2.33-16.74,3.14-29,7.51-41.67,12-25.65,9.11-38.48,13.67-48.44,23.27a56.17,56.17,0,0,0-17.14,44.9c1.42,14.44,10.41,36.35,32,41.41,22.82,5.35,48.32-10.86,83.93-33.49,22.26-14.16,20.46-16.22,55-41.15C602.4,25.57,622.65,16,620.22,9.48,618.75,5.54,610.43,6.64,569.33,6.82Z" />
          <path class="cls-2"
            d="M515.54,37.89c-32.11,2-36.34,1.42-49.14,4.09a225.67,225.67,0,0,0-28.52,8.21c-17.62,6-26.43,9-33.51,14.68-13.72,11-13.37,23.59-13.28,25.39.4,7.9,5.61,19.62,19.94,21.57,15.16,2.07,33-7.83,57.8-21.67,15.54-8.65,14.4-9.72,38.62-24.78,29.64-18.43,43.64-24.48,42.26-28C548.87,35.28,543.23,36.21,515.54,37.89Z" />
        </g>
      </g>
      <g id="right-arm">
        <path class="cls-3" d="M445,271.65c10.28,13.21,24.13,19.94,36.22,16s19.29-17.55,19.79-34.29Z" />
        <path class="cls-4"
          d="M504.56,255.35a74.12,74.12,0,0,0-3.11-13.77c-8.66-26.51-29.95-43.34-47.53-37.59s-24.82,31.9-16.15,58.41a74.31,74.31,0,0,0,5.62,13Z" />
      </g>
      <g id="left-arm">
        <path class="cls-5" d="M119.78,262.06c1.34,16.69,9.21,29.91,21.49,33.25s25.76-4.07,35.37-17.78Z" />
        <path class="cls-4"
          d="M178.47,281.13a74.28,74.28,0,0,0,5-13.21c7.32-26.91-1.22-52.66-19.07-57.52s-38.26,13-45.58,39.93a74.33,74.33,0,0,0-2.41,13.91Z" />
      </g>
      <g id="body">
        <path class="cls-6"
          d="M460.82,226.91c0,75.94-57.6,94-149,94s-148-22.06-148-98,43-198,149-198S460.82,151,460.82,226.91Z" />
        <ellipse class="cls-7" cx="399.32" cy="162.91" rx="35" ry="37.5" />
        <ellipse class="cls-8" cx="225.32" cy="162.91" rx="35" ry="37.5" />
        <path class="cls-9"
          d="M325.32,142.66c0,5.38-5.46,4.25-12.5,4.25s-13,1.13-13-4.25,6.46-11.25,13.5-11.25S325.32,137.27,325.32,142.66Z" />
        <path class="cls-10"
          d="M335.82,131.91a44.15,44.15,0,0,1,11-18c3.14-3.09,9.66-9.34,20-11,3.49-.56,11.52-1.85,19,3a23.48,23.48,0,0,1,8,9" />
        <path class="cls-9" d="M318.82,132.91a51.39,51.39,0,0,1,31-52" />
        <path class="cls-9" d="M313.82,132.91q-.49-18-1-36" />
        <path class="cls-9" d="M343.82,159.91a73.32,73.32,0,0,0,57-8" />
        <path class="cls-10"
          d="M244.82,64.41a31.71,31.71,0,0,1,16.07-4.5c6.13.09,7.46,2.27,13.93,2.5,9.54.34,12.17-4.18,21.43-4,8.68.17,10.22,4.21,18.21,4s9-4.33,17.15-4.51c7.86-.16,10.68,3.64,18.21,3,5.17-.44,6.15-2.43,10.71-2.51a20.68,20.68,0,0,1,11.79,4" />
        <path class="cls-10"
          d="M275.82,43.51c3-1.5,7.42-3.18,12-2.83,4.29.33,5,2.15,9,2.35,6.18.31,8.38-3.78,15-3.77,5.73,0,7.78,3.09,13,2.83,4-.2,4.07-2.75,8-3.3s8.48,1.14,12,2.83" />
        <path class="cls-10"
          d="M231.32,79.81a42.55,42.55,0,0,1,19.79-5c7.55.11,9.19,2.5,17.15,2.75,11.74.38,15-4.59,26.39-4.4,10.69.18,12.58,4.63,22.43,4.4s11.13-4.76,21.1-5c9.69-.18,13.16,4,22.43,3.3,6.38-.48,7.58-2.67,13.2-2.75a27.44,27.44,0,0,1,14.51,4.4" />
        <path class="cls-10"
          d="M290.61,130.87a44.27,44.27,0,0,0-11-18c-3.14-3.09-9.66-9.33-20-11-3.49-.56-11.52-1.85-19,3a23.55,23.55,0,0,0-8,9" />
        <path class="cls-9" d="M307.61,131.87a51.39,51.39,0,0,0-31-52" />
        <path class="cls-9" d="M282.61,158.87a73.32,73.32,0,0,1-57-8" />
      </g>
      <g id="eyes">
        <path id="right-3" data-name="right" class="cls-11"
          d="M398.91,134.12c1.8,9.65-8.36,19.65-22.71,22.33s-33-.71-34.81-10.36,13.27-31.53,27.61-34.22S397.1,124.48,398.91,134.12Z" />
        <path id="left-3" data-name="left" class="cls-12"
          d="M226.22,133.18c-1.81,9.65,8.35,19.65,22.7,22.33s33-.72,34.81-10.36-13.27-31.53-27.61-34.22S228,123.54,226.22,133.18Z" />
      </g>
      <path id="mouth" class="cls-13"
        d="M294.82,158.93c.07,1.79,9.75,8.53,17,8.48,6.65,0,15.93-5.67,16-7.42s-8.28,7-16,6.92C303.56,166.82,294.75,157.2,294.82,158.93Z" />
      <g id="clothing">
        <g id="body-2" data-name="body">
          <path class="cls-4"
            d="M455.08,167.41c-13.84,10.13-34.83,15.25-40.45,16.93-42.46,12.63-85.15,15.87-128.29,15.6-25-.16-50.12,1-75-3.47a172,172,0,0,1-44.94-15,372.69,372.69,0,0,0-2.11,38.23c0,119.91,56.6,154.75,148,154.75s149-28.52,149-148.43a414.24,414.24,0,0,0-4.59-58.44Z" />
        </g>
        <line class="cls-4" x1="325.32" y1="239.1" x2="325.32" y2="373.41" />
        <line class="cls-4" x1="307.59" y1="239.41" x2="307.59" y2="373.71" />
        <path class="cls-14"
          d="M473.32,225.41c-57.89.18-115.6,17.82-173.49,18-49.28.15-101.93-18.15-151.2-18-1.07-16,3.75-37,2.69-53,51.24,0,108.42,27,159.65,27,55.94,0,102.42-36,158.35-36C470.38,179.08,472.26,209.74,473.32,225.41Z" />
      </g>
    </g>
  </g>
</svg>